<svg width="505" height="551" viewBox="0 0 505 551" fill="none" xmlns="http://www.w3.org/2000/svg">
<path d="M246.945 14.8165C259.956 -1.65079 283.853 -4.45265 300.32 8.55774L368.457 62.3907C372.169 143.074 423.567 220.213 504.557 260.385L286.617 536.234C273.607 552.701 249.71 555.504 233.243 542.493L14.8172 369.921C-1.65017 356.911 -4.45287 333.014 8.55743 316.547L246.945 14.8165ZM257.374 258.038C234.837 255.62 181.93 269.757 145.06 343.795C142.528 348.877 141.045 354.459 140.436 360.134L140.344 361.007C138.833 375.086 149.013 387.715 163.092 389.226C169.367 389.899 175.67 389.803 181.891 388.925L231.201 382.073C239.773 380.896 248.504 381.833 256.631 384.803L303.363 401.962C309.256 404.14 315.395 405.572 321.671 406.245C335.75 407.756 348.378 397.575 349.889 383.496L349.983 382.623C350.592 376.948 350.329 371.179 348.932 365.675C328.613 285.499 279.911 260.457 257.374 258.038ZM388.559 239.716C376.01 230.641 355.982 236.717 343.771 253.29C331.56 269.864 331.863 290.706 344.413 299.78C356.963 308.854 376.989 302.78 389.2 286.206C401.411 269.633 401.108 248.791 388.559 239.716ZM173.897 235.059C165.536 216.277 147.2 206.085 133.011 212.289C118.821 218.494 114.212 238.809 122.573 257.591C130.935 276.372 149.27 286.565 163.46 280.36C177.649 274.156 182.368 253.852 173.952 235.065L173.897 235.059ZM326.267 160.776C309.262 153.101 287.1 165.183 276.784 187.756C266.468 210.329 271.9 234.812 288.905 242.488C305.91 250.164 328.072 238.082 338.388 215.509C348.703 192.936 343.272 168.453 326.267 160.776ZM248.954 184.77C243.663 160.522 224.57 144.011 206.323 147.903C188.077 151.796 177.574 174.57 182.865 198.818C188.156 223.065 207.248 239.576 225.495 235.684C243.742 231.791 254.245 209.017 248.954 184.77Z" fill="url(#paint0_linear_28_33)"/>
<defs>
<linearGradient id="paint0_linear_28_33" x1="280" y1="37" x2="246.5" y2="547.5" gradientUnits="userSpaceOnUse">
<stop offset="0.0721154" stop-color="#C57627"/>
<stop offset="1" stop-color="#5F3913"/>
</linearGradient>
</defs>
</svg>
